<svg viewBox="0 0 40 38" width="40" height="38" xmlns="http://www.w3.org/2000/svg">
    <g fill-rule="nonzero" fill="#FFF">
        <path d="M28.979 37.97c-.8 0-1.602-.195-2.374-.591-3.627-1.86-5.622-7.547-5.42-15.326a65.005 65.005 0 0 1 2.778-1.262c.545 4.462 2.395 6.656 6.385 7.571 3.297.756 5.485 2.075 6.503 3.921a4.827 4.827 0 0 1 .394 3.775l-2.602-.892c.04-.123.222-.774-.184-1.51-.427-.775-1.592-1.848-4.713-2.564-2.249-.515-4.031-1.415-5.381-2.739.54 3.01 1.62 5.575 3.473 6.525 1.245.638 2.305.096 2.976-.471l1.752 2.154c-1.104.934-2.342 1.41-3.587 1.41zM10.823 37.97c.8 0 1.602-.195 2.374-.591 3.627-1.86 5.622-7.547 5.42-15.326-1.809-.862-2.778-1.262-2.778-1.262-.545 4.462-2.395 6.656-6.385 7.571-3.296.756-5.484 2.075-6.503 3.921a4.828 4.828 0 0 0-.394 3.775l2.602-.892c-.04-.123-.223-.774.184-1.51.427-.775 1.592-1.848 4.713-2.564 2.249-.515 4.031-1.415 5.381-2.739-.54 3.01-1.62 5.575-3.473 6.525-1.245.638-2.305.096-2.976-.471L7.236 36.56c1.104.934 2.342 1.41 3.587 1.41zM34.112 19.176l-2.502-1.15c.924-2.09 2.768-3.228 5.198-3.204 1.643.017 3 .55 3.15.61l-1.017 2.6.508-1.3-.503 1.302c-.01-.004-1.053-.413-2.216-.413h-.011c-1.722.003-2.313.889-2.607 1.555zM5.943 19.176c-.295-.666-.885-1.551-2.607-1.555h-.012c-1.162 0-2.205.409-2.215.413L.098 15.432a9.341 9.341 0 0 1 3.149-.61h.077c2.39 0 4.206 1.135 5.12 3.203l-2.501 1.15z"/>
        <path d="M32.815 25.096c-3.28 0-5.95-2.712-5.97-6.052a7.382 7.382 0 0 1-.006-.194c-.027-1.281.278-2.311.572-3.307.332-1.124.676-2.286.676-4.11 0-4.245-3.028-8.635-8.095-8.635-5.066 0-8.094 4.39-8.094 8.635 0 1.824.343 2.986.676 4.11.294.996.599 2.026.572 3.307l-.007.195c-.02 3.34-2.69 6.05-5.97 6.05-2.497 0-4.751-1.606-5.608-3.998l2.578-.96c.463 1.292 1.681 2.16 3.03 2.16 1.779 0 3.225-1.475 3.225-3.288l.002-.07.006-.146c.017-.841-.192-1.548-.456-2.442-.353-1.195-.793-2.681-.793-4.918C9.153 5.813 13.208 0 19.993 0c3.121 0 5.953 1.289 7.974 3.63 1.82 2.108 2.865 4.952 2.865 7.803 0 2.237-.44 3.723-.793 4.918-.264.894-.473 1.6-.456 2.44.001.05.003.099.006.147l.002.07c0 1.814 1.446 3.289 3.224 3.289 1.35 0 2.568-.868 3.031-2.16l2.578.96c-.857 2.392-3.111 3.999-5.609 3.999z"/>
        <path d="M16.85 13.827c-1.331 0-2.411 1.1-2.411 2.459 0 .323.062.632.173.914a1.419 1.419 0 0 1 1.363-1.062c.781 0 1.415.646 1.415 1.442 0 .478-.23.9-.58 1.163l.04.001c1.332 0 2.412-1.1 2.412-2.458s-1.08-2.459-2.412-2.459zM22.899 13.827c-1.332 0-2.411 1.1-2.411 2.459 0 .17.017.337.05.498.253-.39.686-.646 1.178-.646.781 0 1.415.646 1.415 1.442 0 .466-.217.879-.553 1.142.105.014.212.023.321.023 1.332 0 2.411-1.101 2.411-2.46 0-1.357-1.08-2.458-2.411-2.458z"/>
    </g>
</svg>
