<svg width="409" height="382" viewBox="0 0 409 382" xmlns="http://www.w3.org/2000/svg">
    <g fill-rule="nonzero" fill="#FFF">
        <path d="M296.031 381.703c-8.192 0-16.413-1.967-24.33-5.949-37.178-18.697-57.627-75.861-55.558-154.059C234.686 213.029 244.62 209 244.62 209c5.587 44.863 24.55 66.914 65.45 76.113 33.786 7.596 56.213 20.857 66.657 39.416 9.753 17.33 5.552 33.428 4.031 37.947l-26.666-8.967c.416-1.236 2.28-7.783-1.883-15.184-4.38-7.783-16.318-18.57-48.313-25.766-23.048-5.184-41.318-14.23-55.156-27.535 5.543 30.256 16.604 56.041 35.602 65.596 12.756 6.412 23.627.963 30.503-4.74l17.961 21.654c-11.318 9.387-24.009 14.167-36.775 14.169zM109.94 381.703c8.191 0 16.412-1.967 24.33-5.949 37.177-18.697 57.626-75.861 55.557-154.059C171.284 213.029 161.35 209 161.35 209c-5.587 44.863-24.549 66.914-65.449 76.113-33.787 7.596-56.214 20.857-66.658 39.416-9.753 17.33-5.552 33.428-4.03 37.947l26.665-8.967c-.416-1.236-2.28-7.783 1.883-15.184 4.381-7.783 16.318-18.57 48.313-25.766 23.048-5.184 41.318-14.23 55.156-27.535-5.543 30.256-16.604 56.041-35.602 65.596-12.756 6.412-23.627.963-30.503-4.74l-17.96 21.654c11.317 9.387 24.007 14.167 36.774 14.169zM348.646 192.767L323 181.2c9.477-21.01 28.378-32.437 53.278-32.197 16.84.167 30.751 5.52 32.282 6.132l-10.414 26.135 5.208-13.068-5.161 13.086c-.106-.042-10.79-4.155-22.709-4.155h-.113c-17.652.038-23.706 8.94-26.725 15.633zM59.915 192.767c-3.019-6.692-9.073-15.594-26.725-15.633h-.113c-11.92 0-22.603 4.113-22.709 4.155L0 155.136c1.531-.61 15.442-5.965 32.282-6.132.263-.002.526-.004.788-.004 24.493 0 43.114 11.413 52.49 32.201l-25.645 11.566z"/>
        <path d="M335.354 252.276c-33.616 0-60.987-27.256-61.184-60.829a72.788 72.788 0 0 1-.067-1.952c-.275-12.885 2.844-23.235 5.861-33.245 3.405-11.298 6.927-22.98 6.927-41.323 0-42.664-31.034-86.795-82.968-86.795-51.935 0-82.969 44.131-82.969 86.795 0 18.342 3.521 30.024 6.927 41.322 3.018 10.011 6.138 20.362 5.861 33.248a71.529 71.529 0 0 1-.068 1.954c-.196 33.573-27.567 60.825-61.184 60.825-25.603 0-48.706-16.152-57.49-40.191l26.426-9.654c4.745 12.986 17.229 21.713 31.064 21.713 18.225 0 33.052-14.83 33.052-33.056l.018-.706c.024-.481.045-.971.056-1.465.181-8.452-1.96-15.556-4.671-24.548-3.619-12.008-8.123-26.952-8.123-49.441C92.822 58.435 134.379 0 203.924 0c31.997 0 61.024 12.956 81.735 36.482 18.662 21.198 29.365 49.79 29.365 78.445 0 22.49-4.504 37.435-8.123 49.442-2.711 8.991-4.852 16.094-4.671 24.524.011.502.03.998.055 1.486l.018.706c0 18.227 14.827 33.057 33.052 33.057 13.837 0 26.321-8.727 31.066-21.713l26.426 9.654c-8.785 24.04-31.89 40.193-57.493 40.193z"/>
        <path d="M146.099 161.857a24.872 24.872 0 0 0 .047 4.899c1.477 13.57 13.674 23.375 27.244 21.898 13.57-1.476 23.373-13.673 21.897-27.243a24.592 24.592 0 0 0-4.99-12.411L146.1 161.857zM219.885 146a24.866 24.866 0 0 0-3.432 3.497c-8.552 10.64-6.86 26.197 3.78 34.749 10.639 8.552 26.195 6.859 34.748-3.78a24.594 24.594 0 0 0 5.248-12.304L219.885 146z"/>
    </g>
</svg>
