<?xml version="1.0" encoding="UTF-8"?>
<svg width="40px" height="38px" viewBox="0 0 40 38" version="1.1" xmlns="http://www.w3.org/2000/svg" xmlns:xlink="http://www.w3.org/1999/xlink">
    <g id="00---Symbols" stroke="none" stroke-width="1" fill="none" fill-rule="evenodd">
        <g id="closed-elements/logo-button/active-copy" transform="translate(-20.000000, -21.000000)" fill="#FFFFFF">
            <g id="octo-character/sleep" transform="translate(20.000000, 21.000000)">
                <g id="Octo-expressionS-02" transform="translate(0.097561, 0.000000)">
                    <path d="M28.8810873,37.9704555 C28.0818677,37.9704555 27.279819,37.7747853 26.5074287,37.3786702 C22.8803068,35.5187592 20.8852824,29.832288 21.087136,22.0534293 C22.8962092,21.1913665 23.8653799,20.7905759 23.8653799,20.7905759 C24.4104531,25.2533874 26.2604043,27.4469424 30.2506482,28.3620262 C33.5469409,29.1176492 35.7349409,30.4368063 36.7538677,32.2829895 C37.7053799,34.0069162 37.2955263,35.608288 37.147136,36.057822 L34.5455751,35.1658168 C34.5861604,35.0428639 34.7680141,34.3915916 34.3618677,33.6553665 C33.9344531,32.8811414 32.7698677,31.808089 29.6484043,31.0922565 C27.399819,30.5765707 25.6173799,29.6767068 24.2673312,28.3531728 C24.8081116,31.3629319 25.8872336,33.9279319 27.740697,34.8784293 C28.9851848,35.5162723 30.0457702,34.9742251 30.7165994,34.406911 L32.4688921,36.5609738 C31.364697,37.4947592 30.1265507,37.9702565 28.8810873,37.9704555 Z" id="Shape" fill-rule="nonzero"></path>
                    <path d="M10.7258038,37.9704555 C11.5250234,37.9704555 12.3270721,37.7747853 13.0994624,37.3786702 C16.7265843,35.5187592 18.7216087,29.832288 18.5197551,22.0534293 C16.7106819,21.1913665 15.7415112,20.7905759 15.7415112,20.7905759 C15.196438,25.2533874 13.3464868,27.4469424 9.35624287,28.3620262 C6.05995019,29.1176492 3.87195019,30.4368063 2.85302336,32.2829895 C1.90151116,34.0069162 2.31136482,35.608288 2.45975507,36.057822 L5.06131604,35.1658168 C5.02073068,35.0428639 4.83887702,34.3915916 5.24502336,33.6553665 C5.67243799,32.8811414 6.83702336,31.808089 9.95848677,31.0922565 C12.2070721,30.5765707 13.9895112,29.6767068 15.3395599,28.3531728 C14.7987795,31.3629319 13.7196575,33.9279319 11.8661941,34.8784293 C10.6217063,35.5162723 9.56112092,34.9742251 8.89029165,34.406911 L7.13799897,36.5609738 C8.24219409,37.4947592 9.48024287,37.9702565 10.7258038,37.9704555 Z" id="Shape" fill-rule="nonzero"></path>
                    <path d="M34.0142439,19.1757455 L31.5121951,18.025201 C32.4367805,15.935201 34.2807805,14.7984837 36.7100488,14.8223581 C38.3529756,14.8389707 39.7101463,15.3715675 39.8595122,15.4323476 L38.8435122,18.0321644 L39.3516098,16.7322063 L38.8480976,18.0339549 C38.8377561,18.0297769 37.7954146,17.6206303 36.6325854,17.6206303 C36.628878,17.6206303 36.6252683,17.6206303 36.621561,17.6206303 C34.8994146,17.6244104 34.3087805,18.5100492 34.0142439,19.1757455 Z" id="Shape" fill-rule="nonzero"></path>
                    <path d="M5.84536585,19.1757749 C5.55082927,18.5100785 4.96019512,17.6245393 3.23804878,17.6206597 C3.23443902,17.6206597 3.23063415,17.6206597 3.22702439,17.6206597 C2.06409756,17.6206597 1.02185366,18.0298063 1.0115122,18.0339843 L0,15.432377 C0.149365854,15.3716963 1.50653659,14.839 3.14946341,14.8223874 C3.17512195,14.8221885 3.20078049,14.8219895 3.22634146,14.8219895 C5.61590244,14.8219895 7.43258537,15.9573141 8.34731707,18.0252304 L5.84536585,19.1757749 Z" id="Shape" fill-rule="nonzero"></path>
                    <path d="M32.7174634,25.0955183 C29.4378537,25.0955183 26.7675122,22.3841885 26.7482927,19.044466 C26.7453659,18.9804031 26.7430244,18.9157435 26.7417561,18.850288 C26.7149268,17.568534 27.0192195,16.5389529 27.313561,15.5431937 C27.6457561,14.4193089 27.9893659,13.2572251 27.9893659,11.4325288 C27.9893659,7.18846597 24.9616585,2.7984712 19.8949268,2.7984712 C14.8280976,2.7984712 11.8003902,7.18846597 11.8003902,11.4325288 C11.8003902,13.2571257 12.1439024,14.4192094 12.4761951,15.5430942 C12.7706341,16.5389529 13.0750244,17.5686335 13.048,18.8504869 C13.0467317,18.9147487 13.0443902,18.9801047 13.0413659,19.0448639 C13.0222439,22.3845864 10.3519024,25.0955183 7.07219512,25.0955183 C4.57434146,25.0955183 2.32039024,23.4887749 1.46341463,21.0974607 L4.04156098,20.1371152 C4.5044878,21.4289162 5.72243902,22.2970471 7.07219512,22.2970471 C8.8502439,22.2970471 10.2967805,20.8218115 10.2967805,19.0087539 L10.2985366,18.9385236 C10.300878,18.8906754 10.3029268,18.8419319 10.304,18.7927906 C10.3216585,17.9520157 10.1127805,17.2453351 9.84829268,16.3508429 C9.49521951,15.1563298 9.05580488,13.6697539 9.05580488,11.4326283 C9.05580488,5.81290576 13.1101463,0 19.8950244,0 C23.0166829,0 25.8485854,1.28881675 27.8691707,3.62909948 C29.6898537,5.73780105 30.7340488,8.58203141 30.7340488,11.4325288 C30.7340488,13.6697539 30.2946341,15.1564293 29.941561,16.3508429 C29.6770732,17.2452356 29.4681951,17.9518168 29.4858537,18.7904031 C29.4869268,18.8403403 29.4887805,18.8896806 29.4912195,18.9382251 L29.4929756,19.0084555 C29.4929756,20.8216126 30.9395122,22.2968482 32.717561,22.2968482 C34.0675122,22.2968482 35.2854634,21.4287173 35.7483902,20.1369162 L38.3265366,21.0972618 C37.4694634,23.4886754 35.2153171,25.0955183 32.7174634,25.0955183 Z" id="Shape" fill-rule="nonzero"></path>
                    <path d="M14.253519,16.1009581 C14.2395678,16.2604188 14.2405434,16.4231623 14.2581043,16.5882932 C14.4022019,17.9381885 15.5921531,18.913555 16.9160556,18.7666283 C18.239958,18.619801 19.1963482,17.4064869 19.0523482,16.0565916 C19.0024946,15.5899476 18.8277629,15.1680681 18.5656165,14.8219895 L14.253519,16.1009581 Z" id="Shape" fill-rule="nonzero"></path>
                    <path d="M21.4521756,14.5235602 C21.3317854,14.6261204 21.2194927,14.7420105 21.1173463,14.8714293 C20.2830049,15.9298586 20.448078,17.4774136 21.4861268,18.3281361 C22.524078,19.1788586 24.0417366,19.010445 24.8761756,17.9521152 C25.1644683,17.5861414 25.3335415,17.1620733 25.3881756,16.7281571 L21.4521756,14.5235602 Z" id="Shape" fill-rule="nonzero"></path>
                </g>
            </g>
        </g>
    </g>
</svg>